<svg width="178" height="111" viewBox="0 0 178 111" fill="none" xmlns="http://www.w3.org/2000/svg">
<path d="M26.0596 72.4834C18.7354 72.4834 13.4473 70.96 10.1953 67.9131C6.94336 64.8369 5.31738 60.5596 5.31738 55.0811C5.31738 50.54 6.24023 46.9951 8.08594 44.4463C9.96094 41.8975 12.4951 40.0957 15.6885 39.041C18.8818 37.9863 22.4414 37.459 26.3672 37.459C32.4609 37.459 37.0166 38.6309 40.0342 40.9746C43.0811 43.2891 44.6045 46.6143 44.6045 50.9502C44.6045 51.7412 44.4873 52.6787 44.2529 53.7627C44.0186 54.8174 43.7842 55.3447 43.5498 55.3447L8.83301 54.9053C8.9502 60.6768 10.4443 64.6172 13.3154 66.7266C16.2158 68.8359 20.4492 69.8906 26.0156 69.8906C29.2969 69.8906 32.0361 69.5977 34.2334 69.0117C36.46 68.3965 38.2471 67.7227 39.5947 66.9902C40.9717 66.2285 41.9824 65.6279 42.627 65.1885C42.7148 65.1299 42.832 65.1006 42.9785 65.1006C43.3008 65.1006 43.5938 65.2617 43.8574 65.584C44.1504 65.877 44.2969 66.1992 44.2969 66.5508C44.2969 66.873 44.1504 67.1367 43.8574 67.3418C43.5352 67.6641 42.7002 68.25 41.3525 69.0996C40.0342 69.9199 38.1152 70.6963 35.5957 71.4287C33.1055 72.1318 29.9268 72.4834 26.0596 72.4834ZM8.87695 52.752H42.0117V50.6865C42.0117 48.7236 41.5137 46.9512 40.5176 45.3691C39.5215 43.7578 37.8809 42.4688 35.5957 41.502C33.3105 40.5352 30.2344 40.0518 26.3672 40.0518C20.9473 40.0518 16.7285 40.9893 13.7109 42.8643C10.7227 44.7393 9.11133 48.0352 8.87695 52.752ZM58.4912 72C57.6416 72 57.1289 71.707 56.9531 71.1211C56.7773 70.5059 56.6895 69.8027 56.6895 69.0117V26.209C56.6895 25.3594 56.7773 24.627 56.9531 24.0117C57.1582 23.3672 57.7002 23.0449 58.5791 23.0449C59.3115 23.0449 59.7656 23.3672 59.9414 24.0117C60.1172 24.6563 60.2051 25.3594 60.2051 26.1211V68.9238C60.2051 69.7734 60.1025 70.5059 59.8975 71.1211C59.6924 71.707 59.2236 72 58.4912 72ZM74.0918 72C73.2715 72 72.7734 71.751 72.5977 71.2529C72.4219 70.7549 72.334 70.0811 72.334 69.2314V41.0186C72.334 40.1689 72.4219 39.4512 72.5977 38.8652C72.7734 38.25 73.2715 37.9424 74.0918 37.9424C74.8242 37.9424 75.293 38.25 75.498 38.8652C75.7324 39.4805 75.8496 40.1689 75.8496 40.9307V69.2314C75.8496 69.9932 75.7617 70.6523 75.5859 71.209C75.4395 71.7363 74.9414 72 74.0918 72ZM74.0479 30.6914C73.2861 30.6914 72.6709 30.4717 72.2021 30.0322C71.7334 29.5635 71.499 28.9629 71.499 28.2305C71.499 27.4688 71.7334 26.8535 72.2021 26.3848C72.6709 25.8867 73.2861 25.6377 74.0479 25.6377C74.7803 25.6377 75.3955 25.8867 75.8936 26.3848C76.4209 26.8535 76.6846 27.4688 76.6846 28.2305C76.6846 28.9629 76.4209 29.5635 75.8936 30.0322C75.3955 30.4717 74.7803 30.6914 74.0479 30.6914ZM89.6924 72C88.8721 72 88.3594 71.6777 88.1543 71.0332C87.9785 70.3887 87.8906 69.6855 87.8906 68.9238V40.7988C87.8906 40.125 88.0078 39.5537 88.2422 39.085C88.5059 38.5869 89.0479 38.3379 89.8682 38.3379C90.5127 38.3379 90.9229 38.5723 91.0986 39.041C91.3037 39.5098 91.4062 40.0957 91.4062 40.7988V45.8965C92.0508 43.4941 93.2373 41.6924 94.9658 40.4912C96.7236 39.29 98.6279 38.4844 100.679 38.0742C102.729 37.6641 104.517 37.459 106.04 37.459C108.296 37.459 109.951 37.5762 111.006 37.8105C112.061 38.0449 112.998 38.2793 113.818 38.5137C114.434 38.6895 114.741 39.1289 114.741 39.832C114.741 40.2129 114.609 40.5645 114.346 40.8867C114.111 41.209 113.745 41.3701 113.247 41.3701C113.13 41.3701 113.042 41.3701 112.983 41.3701C112.954 41.3408 112.866 41.3115 112.72 41.2822C111.577 40.96 110.479 40.7109 109.424 40.5352C108.369 40.3594 107.241 40.2715 106.04 40.2715C102.583 40.2715 99.5068 40.96 96.8115 42.3369C94.1455 43.6846 92.3438 45.8086 91.4062 48.709V68.9238C91.4062 69.6855 91.3037 70.3887 91.0986 71.0332C90.8936 71.6777 90.4248 72 89.6924 72ZM138.604 72.4395C135.615 72.4395 132.891 72.1025 130.43 71.4287C127.998 70.7256 126.05 69.627 124.585 68.1328C123.149 66.6094 122.432 64.6172 122.432 62.1562C122.432 59.2852 123.208 57.0439 124.761 55.4326C126.313 53.8213 128.408 52.6934 131.045 52.0488C133.682 51.375 136.641 51.0381 139.922 51.0381C143.672 51.0381 147.29 51.2432 150.776 51.6533C154.292 52.0635 156.987 52.6787 158.862 53.499C158.862 49.6025 158.174 46.7021 156.797 44.7979C155.449 42.8643 153.53 41.5898 151.04 40.9746C148.579 40.3301 145.679 40.0078 142.339 40.0078C137.769 40.0078 134.341 40.2715 132.056 40.7988C129.771 41.3262 127.925 41.8242 126.519 42.293C126.343 42.3516 126.226 42.3809 126.167 42.3809C125.815 42.3809 125.493 42.2051 125.2 41.8535C124.907 41.4727 124.761 41.0918 124.761 40.7109C124.761 40.3301 124.937 40.0518 125.288 39.876C125.786 39.6416 127.471 39.1875 130.342 38.5137C133.213 37.8105 137.637 37.459 143.613 37.459C147.217 37.459 150.439 37.8984 153.281 38.7773C156.123 39.627 158.35 41.3115 159.961 43.8311C161.602 46.3213 162.422 50.0273 162.422 54.9492V68.9238C162.422 69.5977 162.319 70.2861 162.114 70.9893C161.938 71.6631 161.44 72 160.62 72C159.946 72 159.478 71.6924 159.214 71.0771C158.979 70.4619 158.862 69.6855 158.862 68.748V66.2871C158.013 67.166 156.768 68.0889 155.127 69.0557C153.516 69.9932 151.377 70.7988 148.711 71.4727C146.045 72.1172 142.676 72.4395 138.604 72.4395ZM138.252 69.8467C144.023 69.8467 148.535 69.2021 151.787 67.9131C155.039 66.624 157.397 65.3789 158.862 64.1777V55.3447C156.021 54.9346 152.988 54.5537 149.766 54.2021C146.572 53.8213 143.408 53.6309 140.273 53.6309C135.762 53.6309 132.246 54.2168 129.727 55.3887C127.207 56.5605 125.947 58.8164 125.947 62.1562C125.947 64.9395 127.104 66.917 129.419 68.0889C131.733 69.2607 134.678 69.8467 138.252 69.8467Z" fill="white"/>
<path d="M74.15 98.42V77.93C74.15 77.81 74.21 77.75 74.33 77.75H75.92C76.04 77.75 76.1 77.81 76.1 77.93V96.89H81.11C83.33 96.89 84.94 96.7 85.94 96.32C86.06 96.3 86.13 96.34 86.15 96.44L86.45 97.79C86.49 97.89 86.45 97.96 86.33 98C85.77 98.24 85.04 98.4 84.14 98.48C83.24 98.56 82.23 98.6 81.11 98.6H74.33C74.21 98.6 74.15 98.54 74.15 98.42ZM90.8241 98.6C90.7041 98.6 90.6441 98.54 90.6441 98.42V77.93C90.6441 77.81 90.7041 77.75 90.8241 77.75H92.4141C92.5341 77.75 92.5941 77.81 92.5941 77.93V98.42C92.5941 98.54 92.5341 98.6 92.4141 98.6H90.8241ZM104.276 93.14L105.056 95.78L105.866 93.14L111.356 77.9C111.376 77.8 111.446 77.75 111.566 77.75H113.306C113.446 77.75 113.486 77.82 113.426 77.96L105.896 98.45C105.856 98.55 105.786 98.6 105.686 98.6H104.396C104.276 98.6 104.206 98.55 104.186 98.45L96.6559 77.96C96.6159 77.82 96.6559 77.75 96.7759 77.75H98.5159C98.6359 77.75 98.7059 77.8 98.7259 77.9L104.276 93.14ZM117.689 98.6C117.569 98.6 117.509 98.54 117.509 98.42V77.93C117.509 77.81 117.569 77.75 117.689 77.75H119.279C119.399 77.75 119.459 77.81 119.459 77.93V98.42C119.459 98.54 119.399 98.6 119.279 98.6H117.689ZM125.771 98.42V77.93C125.771 77.81 125.831 77.75 125.951 77.75H127.211C127.271 77.75 127.341 77.79 127.421 77.87L138.911 95.24L138.761 91.79L138.671 77.93C138.671 77.81 138.731 77.75 138.851 77.75H140.441C140.561 77.75 140.621 77.81 140.621 77.93V98.42C140.621 98.54 140.561 98.6 140.441 98.6H139.181C139.121 98.6 139.051 98.56 138.971 98.48L127.481 81.2L127.631 84.65L127.721 98.42C127.721 98.54 127.661 98.6 127.541 98.6H125.951C125.831 98.6 125.771 98.54 125.771 98.42ZM145.123 88.13C145.123 85.95 145.543 84.05 146.383 82.43C147.223 80.81 148.403 79.55 149.923 78.65C151.463 77.75 153.253 77.3 155.293 77.3C156.653 77.3 157.923 77.5 159.103 77.9C160.283 78.3 161.273 78.86 162.073 79.58C162.153 79.66 162.153 79.75 162.073 79.85L161.143 81.02C161.083 81.12 160.993 81.13 160.873 81.05C160.193 80.39 159.363 79.88 158.383 79.52C157.423 79.16 156.373 78.98 155.233 78.98C153.533 78.98 152.073 79.36 150.853 80.12C149.633 80.88 148.693 81.95 148.033 83.33C147.393 84.69 147.073 86.28 147.073 88.1C147.073 89.96 147.403 91.59 148.063 92.99C148.743 94.37 149.683 95.45 150.883 96.23C152.083 96.99 153.483 97.37 155.083 97.37C156.183 97.37 157.233 97.26 158.233 97.04C159.233 96.82 160.113 96.45 160.873 95.93V89.84H156.163C156.043 89.84 155.983 89.78 155.983 89.66V88.31C155.983 88.19 156.043 88.13 156.163 88.13H162.643C162.763 88.13 162.823 88.19 162.823 88.31V96.59C161.963 97.35 160.843 97.95 159.463 98.39C158.103 98.83 156.623 99.05 155.023 99.05C152.963 99.05 151.193 98.57 149.713 97.61C148.233 96.65 147.093 95.35 146.293 93.71C145.513 92.05 145.123 90.19 145.123 88.13Z" fill="white"/>
</svg>
